<?xml version="1.0" standalone="no"?>
<!DOCTYPE svg PUBLIC "-//W3C//DTD SVG 20010904//EN"
 "http://www.w3.org/TR/2001/REC-SVG-20010904/DTD/svg10.dtd">
<svg version="1.0" xmlns="http://www.w3.org/2000/svg"
 width="500.000000pt" height="500.000000pt" viewBox="0 0 500.000000 500.000000"
 preserveAspectRatio="xMidYMid meet">

<g transform="translate(0.000000,500.000000) scale(0.100000,-0.100000)"
fill="#000000" stroke="none">
<path d="M0 2500 l0 -2500 2500 0 2500 0 0 2500 0 2500 -2500 0 -2500 0 0
-2500z m4100 0 l0 -1600 -1600 0 -1600 0 0 1600 0 1600 1600 0 1600 0 0 -1600z"/>
<path d="M990 2500 l0 -1510 1510 0 1510 0 0 1510 0 1510 -1510 0 -1510 0 0
-1510z m827 1092 c51 -26 83 -70 90 -122 l6 -40 -61 0 c-58 0 -62 2 -68 25 -9
37 -42 55 -97 55 -37 0 -53 -5 -72 -24 -48 -48 -15 -76 145 -117 66 -18 93
-30 123 -58 62 -59 69 -148 17 -221 -67 -94 -280 -109 -390 -29 -34 26 -70 93
-70 132 0 26 1 27 63 27 63 0 63 0 75 -34 23 -62 99 -90 168 -61 41 17 54 30
54 57 0 31 -40 55 -138 83 -153 42 -202 84 -202 175 0 116 92 184 240 177 52
-3 88 -10 117 -25z m623 -277 l117 -290 -60 -3 c-33 -2 -65 -1 -71 1 -7 3 -21
30 -31 61 l-19 56 -113 0 -112 0 -22 -60 -22 -60 -69 0 c-63 0 -69 2 -64 18 4
9 57 142 119 295 l112 278 58 -3 59 -3 118 -290z m310 60 l0 -235 105 0 105 0
0 -60 0 -60 -175 0 -175 0 0 295 0 295 70 0 70 0 0 -235z m707 -42 c62 -153
115 -286 119 -295 5 -16 -1 -18 -64 -18 l-70 0 -19 58 -20 57 -114 3 -114 3
-20 -58 -20 -58 -72 -3 -72 -3 113 278 c62 153 115 286 119 296 5 13 18 17 64
17 l59 0 111 -277z m-1117 -606 c62 -33 93 -92 88 -170 -5 -65 -25 -99 -81
-136 l-36 -24 62 -79 c103 -131 101 -118 13 -118 l-76 0 -65 97 -65 98 0 -98
0 -97 -60 0 -60 0 0 275 0 275 118 0 c105 0 124 -3 162 -23z m324 -72 l59 -95
22 32 c12 18 39 61 60 96 l38 62 68 0 c38 0 69 -3 69 -6 0 -4 -43 -67 -95
-141 l-95 -134 0 -135 0 -134 -65 0 -65 0 0 133 0 133 -66 95 c-37 52 -82 115
-101 142 l-35 47 74 0 73 0 59 -95z m-1088 -721 c53 -25 104 -97 104 -145 0
-5 -27 -9 -59 -9 -55 0 -59 2 -65 26 -18 69 -176 62 -176 -7 0 -27 34 -45 130
-69 139 -35 183 -76 184 -171 0 -67 -34 -115 -102 -146 -47 -22 -64 -25 -136
-21 -67 3 -92 9 -129 32 -50 29 -87 85 -87 131 0 24 2 25 60 25 48 0 60 -3 60
-16 0 -8 13 -29 29 -45 24 -23 38 -29 75 -29 58 0 95 17 103 48 9 37 -21 59
-122 88 -138 40 -170 62 -185 128 -27 119 84 215 230 200 30 -3 69 -12 86 -20z
m563 0 c51 -22 98 -60 126 -105 39 -61 35 -69 -36 -69 -53 0 -64 3 -81 25 -46
58 -138 73 -199 32 -39 -26 -79 -97 -79 -142 0 -45 40 -116 79 -142 61 -41
153 -26 199 32 18 22 27 25 85 25 l66 0 -10 -29 c-16 -46 -77 -110 -133 -139
-42 -22 -64 -27 -126 -27 -66 0 -83 5 -130 31 -156 88 -196 275 -91 423 67 94
217 132 330 85z m607 -5 c138 -66 202 -232 140 -365 -85 -183 -309 -227 -450
-89 -135 133 -109 335 57 441 73 47 171 52 253 13z m524 -2 c62 -33 93 -92 88
-170 -5 -64 -25 -98 -78 -134 -26 -18 -47 -23 -101 -23 l-69 0 0 -100 0 -100
-60 0 -60 0 0 275 0 275 118 0 c105 0 124 -3 162 -23z m470 -32 l0 -54 -97 -3
-98 -3 -3 -52 -3 -53 95 0 96 0 0 -55 0 -55 -95 0 -95 0 0 -55 0 -55 100 0
100 0 0 -55 0 -55 -160 0 -160 0 0 275 0 275 160 0 160 0 0 -55z"/>
<path d="M2256 3440 c-3 -8 -17 -46 -30 -85 -13 -38 -27 -78 -31 -87 -6 -16 0
-18 64 -18 39 0 71 4 71 9 0 25 -69 194 -74 181z"/>
<path d="M3252 3357 c-18 -51 -32 -95 -32 -99 0 -5 32 -8 71 -8 64 0 70 2 64
18 -4 9 -18 47 -30 84 -37 107 -37 107 -73 5z"/>
<path d="M2180 2570 l0 -80 38 0 c69 0 111 51 91 110 -14 37 -36 50 -88 50
l-41 0 0 -80z"/>
<path d="M2585 1825 c-51 -18 -102 -73 -111 -120 -20 -107 86 -209 192 -185
46 11 101 63 116 111 35 117 -83 233 -197 194z"/>
<path d="M3110 1770 l0 -80 38 0 c69 0 111 51 91 110 -14 37 -36 50 -88 50
l-41 0 0 -80z"/>
</g>
</svg>
